<?xml version="1.0" encoding="UTF-8" standalone="no"?>
<svg
   width="511.90875pt"
   height="511.68845pt"
   version="1.1"
   viewBox="0 0 511.90875 511.68845"
   id="svg1"
   sodipodi:docname="favicon.svg"
   inkscape:version="1.3.2 (091e20e, 2023-11-25)"
   xmlns:inkscape="http://www.inkscape.org/namespaces/inkscape"
   xmlns:sodipodi="http://sodipodi.sourceforge.net/DTD/sodipodi-0.dtd"
   xmlns="http://www.w3.org/2000/svg"
   xmlns:svg="http://www.w3.org/2000/svg">
  <defs
     id="defs1" />
  <sodipodi:namedview
     id="namedview1"
     pagecolor="#ffffff"
     bordercolor="#666666"
     borderopacity="1.0"
     inkscape:showpageshadow="2"
     inkscape:pageopacity="0.0"
     inkscape:pagecheckerboard="0"
     inkscape:deskcolor="#d1d1d1"
     inkscape:document-units="pt"
     inkscape:zoom="0.27229835"
     inkscape:cx="624.3152"
     inkscape:cy="749.17824"
     inkscape:window-width="1440"
     inkscape:window-height="819"
     inkscape:window-x="0"
     inkscape:window-y="25"
     inkscape:window-maximized="1"
     inkscape:current-layer="svg1" />
  <g
     id="g2"
     transform="scale(0.49917966,0.49896483)">
    <circle
       style="fill:#f8de7e;fill-opacity:1;stroke:#d1d5db;stroke-width:1.5;stroke-dashoffset:3.2"
       id="path2"
       cx="512.75"
       cy="512.75"
       r="512" />
    <path
       d="m 184.17434,192.9787 c -38.793,0 -70.715,31.582 -70.715,70.312 0,32.23 22.113,59.578 51.891,67.859 v 122.75 c -23.324,10.676 -39.734,34.188 -39.734,61.305 v 89.684 c 0,37.098 30.691,67.527 67.82,67.527 h 23.84 c 1.0508,58.871 49.648,106.46 108.91,106.46 h 395.58 c 59.262,0 107.68,-47.59 108.73,-106.46 h 23.988 c 37.133,0 67.676,-30.434 67.676,-67.527 v -89.684 c 0,-37.098 -30.543,-67.418 -67.676,-67.418 h -23.988 c -0.97266,-58.938 -49.414,-106.57 -108.73,-106.57 l -395.58,-0.004 c -59.312,0 -107.94,47.629 -108.91,106.57 h -14.43 v -116.57 c 29.855,-8.2305 52.039,-35.645 52.039,-67.934 0,-38.72999 -31.922,-70.312 -70.715,-70.312 z m 0,37.5 c 18.676,0 33.215,14.496 33.215,32.812 0,18.316 -14.539,32.922 -33.215,32.922 -18.676,0 -33.363,-14.609 -33.363,-32.922 0,-18.316 14.684,-32.812 33.363,-32.812 z m 142.02,148.24 h 395.58 c 39.891,0 71.266,31.324 71.266,70.863 v 220.9 c 0,39.539 -31.375,70.863 -71.266,70.863 l -395.58,-0.004 c -39.891,0 -71.41,-31.324 -71.41,-70.863 v -220.9 c 0,-39.535 31.52,-70.863 71.41,-70.863 z m 89.832,67.418 c -4.9531,0.0117 -9.7031,1.9805 -13.207,5.4805 -3.5078,3.5 -5.4883,8.2422 -5.5039,13.199 v 89.391 c 0.008,4.9609 1.9844,9.7148 5.4883,13.223 3.5078,3.5078 8.2617,5.4805 13.223,5.4922 4.9805,0.0195 9.7617,-1.9453 13.293,-5.4531 3.5312,-3.5117 5.5195,-8.2812 5.5312,-13.262 v -89.391 c -0.0195,-4.9727 -2.0156,-9.7344 -5.543,-13.238 -3.5312,-3.5039 -8.3086,-5.4609 -13.281,-5.4414 z m 215.77,0 h 0.004 c -4.9727,-0.0195 -9.75,1.9375 -13.281,5.4414 -3.531,3.5039 -5.5234,8.2656 -5.543,13.238 v 89.391 c 0.008,4.9805 2,9.75 5.5312,13.262 3.5312,3.5078 8.3125,5.4727 13.293,5.4531 4.9531,-0.0195 9.6992,-2 13.195,-5.5078 3.5,-3.5039 5.4688,-8.2539 5.4805,-13.207 v -89.391 c -0.0195,-4.9492 -1.9922,-9.6875 -5.4922,-13.188 -3.5,-3.4961 -8.2383,-5.4727 -13.184,-5.4922 z m -438.36,39.148 h 23.805 v 149.63 h -23.801 c -17.105,0 -30.32,-13.16 -30.32,-30.031 v -89.684 c 0,-16.867 13.215,-29.918 30.32,-29.918 z m 637.1,0 h 23.949 c 17.105,0 30.176,13.051 30.176,29.918 v 89.684 c 0,16.867 -13.07,30.031 -30.176,30.031 h -23.949 z m -372.88,159.59 h 0.004 c -4.9727,-0.0195 -9.75,1.9375 -13.281,5.4414 -3.5312,3.5039 -5.5234,8.2656 -5.543,13.238 -0.0195,4.9961 1.957,9.7969 5.4922,13.332 3.5312,3.5312 8.332,5.5078 13.332,5.4883 h 132.61 -0.004 c 4.9727,-0.0195 9.7344,-2.0117 13.238,-5.543 3.5039,-3.5273 5.4609,-8.3047 5.4414,-13.277 -0.0195,-4.9492 -1.9961,-9.6875 -5.4922,-13.188 -3.5,-3.4961 -8.2383,-5.4727 -13.188,-5.4922 z"
       id="path1"
       sodipodi:nodetypes="csccssscsscssssccccccsccssssscsssccssccccccccccccccccscccscccccccccssscccssssccccscsccccsccc" />
  </g>
</svg>
