<?xml version="1.0" encoding="UTF-8" standalone="no"?>
<svg
   width="690.42218pt"
   height="499.99957pt"
   version="1.1"
   viewBox="0 0 690.42218 499.99958"
   id="svg1"
   sodipodi:docname="whizrobot.svg"
   inkscape:version="1.3.2 (091e20e, 2023-11-25)"
   xmlns:inkscape="http://www.inkscape.org/namespaces/inkscape"
   xmlns:sodipodi="http://sodipodi.sourceforge.net/DTD/sodipodi-0.dtd"
   xmlns="http://www.w3.org/2000/svg"
   xmlns:svg="http://www.w3.org/2000/svg">
  <defs
     id="defs1" />
  <sodipodi:namedview
     id="namedview1"
     pagecolor="#ffffff"
     bordercolor="#666666"
     borderopacity="1.0"
     inkscape:showpageshadow="2"
     inkscape:pageopacity="0.0"
     inkscape:pagecheckerboard="0"
     inkscape:deskcolor="#d1d1d1"
     inkscape:document-units="pt"
     inkscape:zoom="0.27229835"
     inkscape:cx="437.02064"
     inkscape:cy="150.57014"
     inkscape:window-width="1312"
     inkscape:window-height="411"
     inkscape:window-x="0"
     inkscape:window-y="25"
     inkscape:window-maximized="0"
     inkscape:current-layer="svg1" />
  <path
     d="M 60.372385,0.009827 C 27.25316,0.009827 0,26.961103 0,60.012323 0,87.516593 18.878802,110.85469 44.301535,117.92147 v 104.75177 c -19.912681,9.11063 -33.922591,29.17518 -33.922591,52.31615 v 76.53406 c 0,31.65849 26.202203,57.62584 57.900801,57.62584 h 20.35321 c 0.89712,50.23902 42.386595,90.85028 92.981075,90.85028 h 337.72335 c 50.59447,0 91.93096,-40.61212 92.82739,-90.85028 h 20.47956 c 31.70202,0 57.77786,-25.97161 57.77786,-57.62584 v -76.53406 c 0,-31.65851 -26.07583,-57.53284 -57.77786,-57.53284 h -20.47956 c -0.8304,-50.29619 -42.18682,-90.94415 -92.82739,-90.94415 l -337.72335,-0.003 c -50.63717,0 -92.152945,40.64538 -92.981075,90.94416 H 76.313465 V 117.97565 C 101.80193,110.95195 120.74135,87.557113 120.74135,60.002483 120.74135,26.951293 93.488185,0 60.368965,0 Z m 0,32.001566 c 15.94448,0 28.35705,12.37051 28.35705,28.00093 0,15.63041 -12.41257,28.0948 -28.35705,28.0948 -15.94449,0 -28.483406,-12.46696 -28.483406,-28.0948 0,-15.63042 12.536356,-28.00093 28.483406,-28.00093 z M 181.62085,158.51566 h 337.72336 c 34.05663,0 60.84279,26.73112 60.84279,60.47271 v 188.51049 c 0,33.74159 -26.78616,60.4727 -60.84279,60.4727 l -337.72336,-0.003 c -34.05664,0 -60.96573,-26.73112 -60.96573,-60.4727 V 218.98495 c 0,-33.73817 26.90995,-60.47269 60.96573,-60.47269 z m 76.69338,57.53282 c -4.22868,0.0103 -8.28395,1.69011 -11.27538,4.67693 -2.99476,2.98681 -4.6856,7.03369 -4.69891,11.2637 v 76.28402 c 0.007,4.23351 1.69417,8.29036 4.68558,11.28417 2.99477,2.99347 7.05338,4.67692 11.28905,4.68691 4.25206,0.0171 8.33397,-1.66007 11.34879,-4.65354 3.01474,-2.99679 4.71222,-7.06696 4.72221,-11.31746 v -76.28402 c -0.0171,-4.24359 -1.72079,-8.3071 -4.73229,-11.29698 -3.01473,-2.99013 -7.09339,-4.6602 -11.33854,-4.64356 z m 184.21195,0 h 0.003 c -4.2454,-0.0171 -8.32398,1.65342 -11.33856,4.64356 -3.01456,2.99013 -4.71556,7.05365 -4.73229,11.29698 v 76.28402 c 0.007,4.25024 1.70749,8.32041 4.72222,11.31746 3.01475,2.99347 7.09673,4.67027 11.3488,4.65354 4.22868,-0.0171 8.28061,-1.70675 11.26512,-4.70022 2.9881,-2.99013 4.66896,-7.04368 4.67895,-11.27052 v -76.28402 c -0.0171,-4.22353 -1.70084,-8.26708 -4.68893,-11.25431 -2.98809,-2.98348 -7.03339,-4.67028 -11.25573,-4.68692 z M 68.279745,249.45641 h 20.32333 v 127.69048 h -20.31992 c -14.60326,0 -25.885462,-11.23042 -25.885462,-25.62772 v -76.53406 c 0,-14.39387 11.282202,-25.53127 25.885462,-25.53127 z m 543.919175,0 h 20.44627 c 14.60326,0 25.76253,11.13739 25.76253,25.53127 v 76.53406 c 0,14.39387 -11.15841,25.62769 -25.76253,25.62769 H 612.19892 Z M 293.85552,385.6465 h 0.003 c -4.2454,-0.0171 -8.32398,1.6534 -11.33854,4.64354 -3.01475,2.99015 -4.71556,7.05367 -4.73231,11.29698 -0.0171,4.26355 1.67078,8.36043 4.68893,11.3772 3.01473,3.01343 7.11338,4.70022 11.38209,4.68358 h 113.21477 -0.003 c 4.2454,-0.0171 8.31067,-1.71674 11.30184,-4.73027 2.99143,-3.0101 4.6622,-7.08702 4.64556,-11.33025 -0.0171,-4.22353 -1.70417,-8.26707 -4.68894,-11.25431 -2.9881,-2.98348 -7.03338,-4.67026 -11.25915,-4.6869 z"
     id="path1"
     sodipodi:nodetypes="csccssscsscssssccccccsccssssscsssccssccccccccccccccccscccscccccccccssscccssssccccscsccccsccc"
     style="stroke-width:0.853558" />
</svg>
