<?xml version="1.0" encoding="UTF-8" standalone="no"?>
<svg
   width="2340pt"
   height="450pt"
   version="1.1"
   viewBox="0 0 2339.9998 450"
   id="svg1"
   sodipodi:docname="whizwordmark.svg"
   inkscape:version="1.3.2 (091e20e, 2023-11-25)"
   xml:space="preserve"
   inkscape:export-filename="whizwordmark.png"
   inkscape:export-xdpi="72"
   inkscape:export-ydpi="72"
   xmlns:inkscape="http://www.inkscape.org/namespaces/inkscape"
   xmlns:sodipodi="http://sodipodi.sourceforge.net/DTD/sodipodi-0.dtd"
   xmlns="http://www.w3.org/2000/svg"
   xmlns:svg="http://www.w3.org/2000/svg"><defs
     id="defs1" /><sodipodi:namedview
     id="namedview1"
     pagecolor="#ffffff"
     bordercolor="#666666"
     borderopacity="1.0"
     inkscape:showpageshadow="2"
     inkscape:pageopacity="0.0"
     inkscape:pagecheckerboard="0"
     inkscape:deskcolor="#d1d1d1"
     inkscape:document-units="pt"
     inkscape:zoom="0.23531451"
     inkscape:cx="1260.0158"
     inkscape:cy="849.92634"
     inkscape:window-width="1440"
     inkscape:window-height="819"
     inkscape:window-x="0"
     inkscape:window-y="25"
     inkscape:window-maximized="1"
     inkscape:current-layer="svg1" /><path
     style="fill:#000000"
     id="path3"
     d="" /><path
     style="fill:#000000"
     id="path2"
     d="" /><g
     id="g1"
     transform="matrix(1.6140361,0,0,1.6140361,-702.75537,8.1850421)"><path
       style="fill:#000000;stroke-width:1.22306"
       d="m 805.20701,189.31879 c -4.82665,-1.13489 -4.94267,-1.61485 -7.97973,-33.00802 -2.21179,-22.86285 -3.9193,-39.16026 -4.91741,-46.935 -0.70719,-5.50845 -0.76819,-5.65675 -2.32792,-5.66006 -2.89221,-0.006 -6.15874,-1.24504 -6.89114,-2.61356 -0.81696,-1.526486 -1.06227,-10.297733 -0.35836,-12.813069 0.9273,-3.313641 2.2849,-3.527432 22.40042,-3.527432 h 18.3422 l 1.7158,1.47588 c 1.67855,1.443824 1.71581,1.616129 1.71581,7.932912 0,8.723369 -0.35772,9.103509 -8.88901,9.446179 l -6.14678,0.24688 0.33084,2.52681 c 0.18195,1.38976 0.74966,7.20503 1.26157,12.92284 0.51192,5.71782 1.1849,12.59754 1.49555,15.28827 0.31065,2.69074 0.75237,7.32092 0.98161,10.28928 0.22922,2.96837 0.62626,5.16988 0.8823,4.89224 0.25604,-0.27762 2.87561,-7.65969 5.8213,-16.40458 2.94567,-8.74489 5.73471,-16.65398 6.19787,-17.57575 1.51277,-3.01074 3.26975,-3.67239 9.11438,-3.43237 4.7559,0.19532 5.38908,0.36641 6.58484,1.77931 0.75067,0.88698 3.8186,9.01741 7.09183,18.79432 3.17286,9.47709 5.8991,17.10082 6.05831,16.94162 0.15921,-0.15921 0.64724,-4.07604 1.08454,-8.70407 0.43729,-4.62802 1.35709,-14.05596 2.04401,-20.95097 0.68691,-6.89501 1.24915,-13.43075 1.2494,-14.52387 l 4.6e-4,-1.98747 -3.82206,-0.004 c -4.96307,-0.005 -8.21424,-0.93701 -9.11151,-2.61356 -0.81695,-1.526486 -1.06226,-10.297733 -0.35835,-12.81307 0.9214,-3.292555 2.35726,-3.527432 21.56426,-3.527432 h 17.50605 l 1.78754,1.787554 c 1.83978,1.839778 2.06623,3.100596 1.82072,10.137297 -0.18221,5.222391 -2.18108,7.019471 -7.81853,7.029211 -1.54989,0.002 -2.0413,0.30002 -2.27958,1.37934 -0.27836,1.26092 -1.12162,9.2189 -4.61704,43.57158 -0.68447,6.72684 -1.63116,15.2577 -2.10379,18.95746 -0.47262,3.69976 -1.04113,8.65316 -1.26336,11.00755 -0.89504,9.4825 -1.90622,10.59244 -10.16563,11.15856 -5.81718,0.39871 -9.59599,-0.79647 -11.76743,-3.72189 -0.78908,-1.06309 -4.24422,-10.31754 -7.67808,-20.56546 -3.43386,-10.24792 -6.47171,-19.04058 -6.75078,-19.53924 -0.66675,-1.19141 -0.9006,-0.5973 -8.26523,20.99743 -6.52981,19.14688 -7.49879,20.97238 -11.81918,22.2668 -2.68476,0.80437 -8.49477,0.84946 -11.72071,0.091 z m 553.73149,-0.10995 c -4.3213,-1.50642 -5.4397,-3.64662 -13.6761,-26.17126 -2.8866,-7.89445 -5.1977,-14.11404 -15.6788,-42.19562 -2.5734,-6.89502 -5.0289,-13.49955 -5.4564,-14.67675 -0.7751,-2.1338 -0.7919,-2.14168 -5.5188,-2.57555 -2.6077,-0.23937 -5.1215,-0.75073 -5.5862,-1.13637 -2.9168,-2.42079 -2.6571,-14.855337 0.3438,-16.4614 0.7156,-0.382978 9.1935,-0.618735 22.2504,-0.618735 23.5898,0 22.4114,-0.221974 23.6813,4.461129 0.7623,2.81122 0.383,9.480562 -0.6489,11.408536 -0.7877,1.47185 -4.1653,2.46831 -8.3819,2.47286 l -3.1678,0.004 2.6642,7.79703 c 1.4654,4.28836 4.9051,14.12636 7.6439,21.86223 2.7387,7.73586 5.4098,15.30355 5.9357,16.81709 0.5259,1.51354 1.1546,2.97319 1.3972,3.24367 0.2426,0.27048 1.4882,-2.34381 2.7679,-5.80954 3.7664,-10.20024 11.7746,-31.54253 14.0715,-37.5013 1.1693,-3.03363 2.126,-5.71673 2.126,-5.96243 0,-0.24571 -1.1696,-0.4793 -2.599,-0.51909 -6.7737,-0.18857 -8.406,-1.98888 -8.4076,-9.273148 0,-4.956616 1.184,-8.206499 3.1693,-8.690966 0.7789,-0.190088 10.1927,-0.26867 20.9195,-0.174653 l 19.5033,0.170947 1.1854,1.588085 c 1.4774,1.979305 2.0821,7.890655 1.1569,11.309834 -0.9722,3.593201 -2.3409,4.553741 -7.1739,5.034601 l -4.1551,0.41341 -2.2151,5.80954 c -1.2184,3.19526 -4.3554,11.31333 -6.9713,18.04017 -4.5154,11.61148 -6.7768,17.48299 -16.7977,43.61332 -5.6307,14.68256 -6.3849,16.01032 -9.8483,17.33729 -3.0807,1.18038 -9.6694,1.38206 -12.5334,0.38367 z m 100.9026,-0.48017 c -21.1048,-4.657 -33.664,-21.40045 -32.5524,-43.39745 1.2058,-23.85975 18.1097,-39.16601 43.2542,-39.16601 20.9062,0 36.311,10.56756 41.6762,28.58946 1.9431,6.52704 2.1983,16.86113 0.5831,23.61248 -3.3941,14.18652 -12.5843,24.19858 -26.6463,29.02904 -3.7022,1.27171 -5.6598,1.50447 -14.0842,1.67462 -5.3815,0.10873 -10.8853,-0.0453 -12.2306,-0.34214 z m 19.1873,-20.82454 c 4.0919,-1.76029 8.0949,-6.11467 9.843,-10.70702 1.9541,-5.1334 1.9573,-13.75392 0.01,-18.87687 -1.7721,-4.65522 -5.49,-8.69613 -9.7375,-10.58357 -4.7617,-2.11598 -12.4723,-2.10727 -17.1961,0.0194 -8.1759,3.68078 -12.2997,12.70118 -10.9046,23.8527 1.1547,9.23033 6.3005,15.47329 14.4481,17.52866 3.4659,0.87433 10.0308,0.27636 13.5401,-1.23331 z m 193.6252,20.79037 c -7.5428,-1.55693 -15.4972,-5.61204 -20.5638,-10.48327 -4.5043,-4.33068 -7.4456,-8.89686 -9.778,-15.17984 -1.6945,-4.56449 -1.9636,-6.15561 -2.2267,-13.16821 -0.2537,-6.76045 -0.1027,-8.75289 0.9887,-13.07012 1.6232,-6.41844 3.4416,-10.34953 7.0142,-15.16316 7.6176,-10.26394 20.0665,-15.88275 33.9901,-15.34154 7.9677,0.3097 11.5771,1.70293 15.6262,6.03174 l 2.774,2.96568 v -2.92486 c 0,-2.34291 0.3097,-3.21575 1.5562,-4.38689 1.379,-1.29544 2.2507,-1.48992 7.651,-1.70682 6.8218,-0.274 9.2056,0.35659 10.2825,2.72001 0.4539,0.99633 0.6908,6.70217 0.6908,16.63969 0,16.9258 -0.083,17.29788 -4.1458,18.42604 -1.2514,0.34754 -4.7104,0.63342 -7.6866,0.63531 -6.0791,0.004 -9.4204,-1.11092 -9.8313,-3.27996 -1.3649,-7.20601 -1.8204,-8.57332 -3.4884,-10.47302 -2.8975,-3.29999 -6.4429,-4.6861 -11.9863,-4.6861 -8.881,0 -14.7124,3.63328 -18.3131,11.40987 -1.5183,3.27935 -1.6982,4.35141 -1.6933,10.09026 0,5.75468 0.1866,6.81759 1.7506,10.2416 4.045,8.85535 11.9536,12.72878 23.0617,11.29488 6.418,-0.82849 11.4032,-2.46055 18.61,-6.09267 4.3314,-2.18289 5.9112,-2.69947 7.2376,-2.36655 3.4964,0.87751 6.9132,6.46774 7.519,12.30127 0.2627,2.53068 0.084,3.35191 -1.0343,4.765 -2.6714,3.37387 -15.2331,8.62039 -25.1387,10.49946 -5.2983,1.00506 -18.6089,1.18096 -22.8663,0.3022 z m 105.7949,0.2428 c -11.7408,-2.44044 -20.1154,-7.66822 -25.5103,-15.92476 -5.561,-8.51066 -7.562,-16.38265 -7.0348,-27.6736 0.7664,-16.40901 8.2389,-28.38248 21.7841,-34.90522 11.9563,-5.7576 29.5975,-5.79314 40.8138,-0.0822 12.5273,6.37847 19.9313,19.15617 20.8225,35.93523 0.5511,10.37821 3.7641,9.41245 -31.3145,9.41245 h -29.0559 l 0.9552,2.29324 c 2.1515,5.16543 6.1763,8.84943 11.5975,10.6153 5.4523,1.77599 21.9436,0.48094 32.5688,-2.55759 7.8685,-2.25018 10.1226,-1.22784 11.9934,5.43946 1.7155,6.11413 1.208,9.69485 -1.586,11.19017 -2.4373,1.30439 -13.5318,4.25006 -20.5632,5.45965 -6.4349,1.107 -21.6851,1.58471 -25.4706,0.79787 z m 27.8246,-51.32223 c 0,-2.00893 -3.3323,-6.57821 -6.058,-8.30683 -3.7671,-2.38903 -6.7516,-3.10085 -12.793,-3.05131 -5.8828,0.0482 -10.0793,1.59427 -13.4345,4.94959 -1.7228,1.72271 -4.4063,6.01011 -4.4063,7.03971 0,0.18157 8.2556,0.33012 18.3459,0.33012 16.273,0 18.3459,-0.10861 18.3459,-0.96128 z m -908.86341,49.23671 c -2.64163,-1.54 -3.07636,-11.48838 -0.6799,-15.55853 0.59348,-1.00795 1.56146,-1.27683 5.50378,-1.52883 l 4.78365,-0.30577 0.15745,-38.31254 0.15746,-38.312548 -5.48719,-0.213902 c -3.88123,-0.151292 -5.7606,-0.487512 -6.42139,-1.148785 -2.35852,-2.360227 -2.38212,-13.27807 -0.0344,-15.872355 1.06026,-1.171583 1.85294,-1.23292 15.93573,-1.23292 13.67781,0 14.93125,0.09002 16.26368,1.168477 l 1.44369,1.168476 0.17488,21.667809 0.17488,21.667818 4.71737,-4.71183 c 4.92665,-4.92087 8.48235,-7.1048 14.29021,-8.77711 4.33183,-1.2473 6.88516,-1.25304 11.76827,-0.0264 9.2947,2.33475 15.36786,7.91615 18.44929,16.95542 l 1.70717,5.00786 0.26188,20.63917 0.26188,20.63916 h 3.94941 c 2.17218,0 4.46967,0.27843 5.10553,0.61874 3.27737,1.75399 3.2478,14.75877 -0.0376,16.51704 -0.65927,0.35283 -8.75438,0.59862 -19.71564,0.59862 -22.55837,0 -20.92704,0.69123 -20.92704,-8.8672 0,-7.71204 0.60197,-8.71077 5.41888,-8.99047 l 3.14255,-0.18249 v -18.04016 c 0,-16.83025 -0.0821,-18.20157 -1.22306,-20.44682 -1.78594,-3.51426 -3.86538,-4.80066 -7.76011,-4.80066 -4.27589,0 -7.54487,1.70317 -11.15158,5.81013 -5.94441,6.76886 -7.80001,13.19012 -7.91438,27.38725 l -0.0813,10.09026 3.14255,0.18249 c 4.6826,0.27191 5.37119,1.32454 5.62441,8.59806 0.18449,5.29912 0.0705,6.07491 -1.11457,7.58139 l -1.32008,1.67822 -18.76019,-0.0186 c -11.3296,-0.011 -19.17452,-0.26014 -19.80628,-0.62844 z m 113.51141,-0.63834 c -0.885,-0.97783 -1.2158,-2.44231 -1.3829,-6.12052 -0.2573,-5.66537 0.026,-7.11913 1.7452,-8.96473 1.2362,-1.32688 1.6172,-1.36377 14.0888,-1.36377 h 12.8184 v -21.70934 -21.70935 l -9.0201,-0.0609 c -4.9611,-0.0335 -9.6832,-0.24645 -10.4938,-0.4732 -2.3322,-0.6524 -3.7883,-3.16927 -4.1476,-7.16923 -0.4551,-5.06645 0.6072,-8.56506 3.0534,-10.05661 1.8192,-1.10927 3.1825,-1.19305 19.4466,-1.19517 16.7808,-0.002 20.4793,0.32114 22.2593,1.94591 0.3834,0.35002 0.7256,11.66637 0.9173,30.3402 l 0.3057,29.78198 13.2658,0.16473 c 13.256,0.16458 13.2665,0.16579 14.4425,1.66074 2.3749,3.01929 2.2032,13.62351 -0.2497,15.41711 -0.8686,0.63517 -8.7059,0.79758 -38.4882,0.79758 -37.2252,0 -37.4028,-0.006 -38.5607,-1.28537 z m 103.1437,-0.32593 c -1.0392,-1.32106 -1.2675,-2.4809 -1.2675,-6.43937 v -4.82808 l 6.0525,-6.55565 c 3.3288,-3.60561 7.3421,-7.79401 8.9185,-9.30754 1.5763,-1.51354 9.4803,-9.56282 17.5644,-17.88728 l 14.6984,-15.13539 h -12.5382 -12.5382 l -0.2485,6.18926 c -0.2218,5.5206 -0.3975,6.30976 -1.6264,7.30484 -1.7561,1.42206 -5.5771,1.99106 -11.3969,1.69717 -3.7647,-0.1901 -4.8434,-0.48113 -5.9754,-1.61204 -1.3219,-1.32071 -1.39,-1.88355 -1.5832,-13.08507 -0.2234,-12.95259 0.019,-15.29389 1.7648,-17.0396 1.1512,-1.15119 2.3556,-1.18896 37.921,-1.18896 23.6034,0 37.1453,0.22116 37.8882,0.61874 2.309,1.23574 3.2237,8.84289 1.5,12.47529 -0.513,1.08105 -9.498,10.75425 -19.9666,21.49601 -10.4686,10.74174 -20.7045,21.25038 -22.7464,23.35251 l -3.7126,3.82207 h 13.5889 13.5889 v -6.35332 c 0,-9.06389 0.1188,-9.17949 9.7062,-9.44428 7.2388,-0.19994 7.3992,-0.17522 8.9545,1.38008 l 1.5836,1.58364 -0.1848,13.99822 c -0.1684,12.75702 -0.2881,14.11224 -1.3497,15.28414 -1.1602,1.28063 -1.3215,1.28591 -39.2465,1.28591 h -38.0815 z m 425.3838,0.84689 c -2.3828,-1.74734 -2.4757,-13.13129 -0.1283,-15.72515 1.028,-1.13597 2.004,-1.23247 14.016,-1.38579 l 12.911,-0.16481 0.1607,-21.55646 0.1607,-21.55646 -9.0279,-0.0345 c -13.6014,-0.052 -14.8122,-0.80741 -14.8284,-9.25152 -0.019,-9.8287 -0.1,-9.79629 23.776,-9.5517 20.5826,0.21084 20.9725,0.29316 21.6803,4.57676 0.2123,1.28486 0.3891,14.78842 0.3927,30.0079 l 0.012,27.67176 h 12.8824 c 7.2335,0 13.3728,0.2625 14.0008,0.59863 1.6164,0.86511 2.4702,3.87065 2.4702,8.69597 0,4.41432 -1.0249,7.38674 -2.7792,8.05993 -0.5445,0.20893 -17.5638,0.37987 -37.8207,0.37987 -28.501,0 -37.0664,-0.17288 -37.8731,-0.76442 z M 1044.9569,95.149771 c -3.2101,-0.35755 -4.1962,-0.741615 -5.3509,-2.083913 -1.327,-1.542831 -1.4154,-2.156515 -1.4154,-9.827349 0,-4.499962 0.2734,-8.900953 0.6076,-9.779968 0.3576,-0.940546 1.4819,-1.963515 2.7323,-2.485934 2.4906,-1.040642 11.1448,-1.188962 14.5293,-0.249015 3.7742,1.048201 4.1459,2.130537 4.1459,12.073954 0,4.824232 -0.2647,9.265878 -0.5882,9.870315 -1.199,2.240392 -7.4015,3.290415 -14.6606,2.48191 z m 529.2403,0.181686 c -3.8039,-0.301742 -5.1321,-0.719393 -6.4366,-2.023947 -1.0973,-1.09727 -1.2075,-2.063133 -1.2075,-10.579642 0,-9.285826 0.015,-9.385774 1.5789,-10.854671 1.4931,-1.401923 1.9852,-1.482547 9.0476,-1.482547 11.1212,0 11.3886,0.302427 11.3886,12.878778 0,7.591678 -0.4632,9.549053 -2.5718,10.866388 -1.4598,0.912111 -7.5693,1.531188 -11.7992,1.195641 z"
       id="path4" /><path
       d="m 492.12638,53.813487 c -9.45209,0 -17.23003,7.69179 -17.23003,17.12448 0,7.84961 5.38793,14.5102 12.64347,16.52703 v 29.895723 c -5.68299,2.60015 -9.68136,8.32649 -9.68136,14.93083 v 21.84251 c 0,9.03521 7.478,16.44619 16.52466,16.44619 h 5.80872 c 0.25603,14.33801 12.09697,25.92831 26.53642,25.92831 h 96.3849 c 14.43947,0 26.23673,-11.59053 26.49257,-25.92831 h 5.84479 c 9.04763,0 16.48957,-7.41218 16.48957,-16.44619 v -21.84251 c 0,-9.0352 -7.44194,-16.41965 -16.48957,-16.41965 h -5.84479 C 649.36874,101.51757 637.56579,89.916817 623.11316,89.916817 l -96.3849,-8.4e-4 c -14.45165,0 -26.30008,11.600013 -26.53642,25.955083 H 496.6759 V 87.480347 c 7.27432,-2.00454 12.67955,-8.68133 12.67955,-16.54532 0,-9.43267 -7.77795,-17.12446 -17.23005,-17.12446 z m 0,9.13312 c 4.5505,0 8.09299,3.5305 8.09299,7.99136 0,4.46085 -3.54249,8.01814 -8.09299,8.01814 -4.55049,0 -8.12905,-3.55802 -8.12905,-8.01814 0,-4.46086 3.57783,-7.99136 8.12905,-7.99136 z m 34.60383,36.103814 h 96.38491 c 9.71963,0 17.36428,7.628949 17.36428,17.258659 v 53.80015 c 0,9.62971 -7.64465,17.25867 -17.36428,17.25867 l -96.38491,-8.5e-4 c -9.71962,0 -17.39937,-7.62896 -17.39937,-17.25867 v -53.80027 c 0,-9.62874 7.67998,-17.258669 17.39937,-17.258669 z m 21.88799,16.419639 c -1.20686,0.003 -2.36421,0.48234 -3.21795,1.33477 -0.8547,0.85242 -1.33726,2.00739 -1.34105,3.21461 v 21.77116 c 0.002,1.20823 0.4835,2.36603 1.33724,3.22045 0.8547,0.85433 2.01301,1.33478 3.22185,1.33764 1.21352,0.004 2.37848,-0.47379 3.2389,-1.32811 0.86039,-0.85528 1.34485,-2.01688 1.34771,-3.22996 v -21.77115 c -0.004,-1.2111 -0.49112,-2.37081 -1.35058,-3.22412 -0.8604,-0.85336 -2.02443,-1.33 -3.23597,-1.32525 z m 52.57336,0 h 8.4e-4 c -1.21162,-0.004 -2.37563,0.47187 -3.23598,1.32525 -0.86034,0.85336 -1.34581,2.01307 -1.35058,3.2241 v 21.77116 c 0.002,1.213 0.48731,2.37461 1.34771,3.22996 0.86039,0.85432 2.02537,1.33288 3.2389,1.3281 1.20685,-0.004 2.36325,-0.4871 3.21502,-1.34142 0.85279,-0.85337 1.3325,-2.01023 1.33535,-3.21656 v -21.77117 c -0.004,-1.20537 -0.48541,-2.35938 -1.3382,-3.21192 -0.85279,-0.85147 -2.0073,-1.33288 -3.21234,-1.33764 z m -106.80844,9.53448 h 5.80019 v 36.44235 h -5.79922 c -4.16772,0 -7.38761,-3.20511 -7.38761,-7.31405 v -21.84251 c 0,-4.10796 3.21989,-7.28652 7.38761,-7.28652 z m 155.23237,0 h 5.83528 c 4.16771,0 7.35252,3.17857 7.35252,7.28652 v 21.84251 c 0,4.10796 -3.18456,7.31405 -7.35252,7.31405 h -5.83528 z m -90.85396,38.86811 h 8.4e-4 c -1.21161,-0.004 -2.37561,0.47188 -3.23597,1.32524 -0.86039,0.85338 -1.3458,2.0131 -1.35057,3.22413 -0.004,1.21679 0.47682,2.38603 1.33821,3.247 0.86038,0.86001 2.03012,1.34142 3.2484,1.33667 h 32.31104 -8.4e-4 c 1.21161,-0.004 2.37183,-0.48995 3.22549,-1.35 0.85375,-0.85906 1.33058,-2.0226 1.32583,-3.2336 -0.004,-1.20538 -0.48636,-2.35939 -1.3382,-3.21194 -0.85279,-0.85147 -2.0073,-1.33288 -3.21332,-1.33762 z"
       id="path1"
       sodipodi:nodetypes="csccssscsscssssccccccsccssssscsssccssccccccccccccccccscccscccccccccssscccssssccccscsccccsccc"
       style="stroke-width:0.243603" /></g></svg>
